# xmcd CD database file
#
# Track frame offsets:
#	150
#	17513
#	32346
#	42016
#	53242
#	63361
#	72147
#	80751
#	94497
#	105603
#	118351
#	131827
#	143063
#	156894
#	165345
#	177060
#	196806
#	211612
#	219338
#	226447
#	235655
#	243195
#	252255
#	263402
#	273375
#	282792
#	292344
#	301411
#	309458
#	319377
#
# Disc length: 4368 seconds
#
# Revision: 4
# Processed by: cddbd v1.5PL3 Copyright (c) Steve Scherf et al.
# Submitted via: CDex 1.51
#
DISCID=a6110e1e
DTITLE=Johhny Rebel    micetrap.net - The Complete Johnny Rebel Collection
DYEAR=2001
DGENRE=Country
TTITLE0=Lookin For A Handout
TTITLE1=Still Lookin For A Handout
TTITLE2=Nigger Hatin Me
TTITLE3=Coon Town
TTITLE4=Who Like A Nigger
TTITLE5=Move Them Niggers North
TTITLE6=Nigger, Nigger
TTITLE7=Federal Aid
TTITLE8=Stay Away From Dixie
TTITLE9=Keep A Workin' Big Jim
TTITLE10=Kajun Ku Klux Klan
TTITLE11=Cowboys And Niggers
TTITLE12=Some Niggers Never Die
TTITLE13=Johnny Rebel
TTITLE14=She Ran Off With A Nigger (Texas BS Band)
TTITLE15=Ship Those Niggers Back (Odis and The 3 Bigots)
TTITLE16=We Is Non-Violent Niggers (Odis and The 3 Bigots)
TTITLE17=We Don't Want Niggers In Our Schools (Coon Hunters)
TTITLE18=That's The Way A Nigger Goes (Unknown)
TTITLE19=Marty and His Beatnik Band (Son Of Mississippi)
TTITLE20=The South Shall Rise Again The Confederates)
TTITLE21=The South's Gonna Rise Again (Jessie James)
TTITLE22=The Great Society (Ski King)
TTITLE23=Segragation Wagon (Col. Sharecropper)
TTITLE24=Move Them Niggers North (Col. Sharecropper)
TTITLE25=Move Them Niggers North 2 (Col. Sharecropper)
TTITLE26=Ngger Hatin Me (Big Reb)
TTITLE27=Dixie (White Riders)
TTITLE28=NAACP Prayer (Colonel Lou)
TTITLE29=Stand Up And Be Counted (White Riders)
EXTD=YEAR: 2001
EXTT0=
EXTT1=
EXTT2=
EXTT3=
EXTT4=
EXTT5=
EXTT6=
EXTT7=
EXTT8=
EXTT9=
EXTT10=
EXTT11=
EXTT12=
EXTT13=
EXTT14=
EXTT15=
EXTT16=
EXTT17=
EXTT18=
EXTT19=
EXTT20=
EXTT21=
EXTT22=
EXTT23=
EXTT24=
EXTT25=
EXTT26=
EXTT27=
EXTT28=
EXTT29=
PLAYORDER=
